<svg version="1.1" xmlns="http://www.w3.org/2000/svg" x="0" y="0" viewBox="0 0 277.7 280.6" enable-background="new 0 0 277.7 280.6" xml:space="preserve"><path d="M69.7 82.5L47.2 51.8v30.8h-1.6V49.2h1.6l22.5 30.5V49.2h1.6v33.4H69.7zM78.7 70.4c0-7.1 4.5-12.7 11.3-12.7 6.9 0 11.3 5.6 11.3 12.7 0 7.1-4.4 12.7-11.3 12.7C83.1 83.1 78.7 77.5 78.7 70.4zM99.5 70.4c0-5.9-3.4-11.3-9.6-11.3 -6.2 0-9.6 5.5-9.6 11.3 0 5.9 3.5 11.4 9.6 11.4C96.1 81.8 99.5 76.3 99.5 70.4zM108.8 78.3V59.7h-4v-1.4h4v-6.6h1.5v6.6h4.9v1.4h-4.9v18.6c0 2.1 0.8 3.5 2.6 3.5 1.2 0 2.2-0.6 2.9-1.3l0.9 1.2c-1 0.9-2 1.5-3.8 1.5C110.1 83.1 108.8 81.3 108.8 78.3z"/><path d="M42 132.8l1.3-1.2c1.6 2.2 3.7 4.1 7.1 4.1 5 0 8-3.5 8-8.4v-24.1H60v24.1c0 6.7-4.5 9.9-9.6 9.9C46.8 137.1 44.1 135.8 42 132.8zM85 136.5v-3.7c-2 2.3-5.4 4.3-8.8 4.3 -4.8 0-7.6-2.1-7.6-7.8v-17h1.5v17c0 5.1 2.5 6.5 6.3 6.5 3.3 0 6.9-2 8.6-4.4v-19h1.5v24.2H85zM93 133.3l1.2-1.1c1.5 2 4.1 3.6 7.7 3.6 4.5 0 7.2-2.4 7.2-5.6 0-7.4-15.5-3.5-15.5-12 0-3.6 3-6.4 8.2-6.4 4.1 0 6.8 1.6 8.3 3.7l-1.1 1c-1.4-2-4-3.3-7.2-3.3 -4.2 0-6.7 2.2-6.7 5.1 0 6.8 15.5 2.9 15.5 12 0 3.8-2.8 7-8.7 7C98.1 137.1 95.4 136 93 133.3zM118.1 132.3v-18.6h-4v-1.4h4v-6.6h1.5v6.6h4.9v1.4h-4.9v18.6c0 2.1 0.8 3.5 2.6 3.5 1.2 0 2.2-0.6 2.9-1.3l0.9 1.2c-1 0.9-2 1.5-3.8 1.5C119.4 137.1 118.1 135.3 118.1 132.3z"/><path d="M45.6 191.5v-33.4h11.6c6.2 0 9.8 4.4 9.8 9.5s-3.7 9.5-9.8 9.5h-10v14.5H45.6zM65.1 167.6c0-4.6-3.2-8-8.1-8h-9.9v15.9h9.9C62 175.6 65.1 172.2 65.1 167.6zM73.2 191.5v-24.2h1.5v4.4c2.2-2.9 4.8-4.9 8.3-4.9v1.8c-0.5-0.1-0.8-0.1-1.2-0.1 -2.6 0-6 2.5-7.1 4.8v18.1H73.2zM87.1 179.4c0-7 4.9-12.7 11.4-12.7 7.4 0 11.2 6 11.2 12.7v0.5H88.8c0.1 5.9 4 10.9 10.2 10.9 3.4 0 6.2-1.2 8.4-3.6l0.9 1c-2.5 2.5-5.2 4-9.3 4C92 192.1 87.1 186.8 87.1 179.4zM98.4 168.1c-6.2 0-9.5 5.7-9.6 10.5h19.3C108.1 173.9 105 168.1 98.4 168.1zM117.3 187.3v-18.6h-4v-1.4h4v-6.6h1.5v6.6h4.9v1.4h-4.9v18.6c0 2 0.8 3.5 2.6 3.5 1.2 0 2.2-0.6 2.9-1.3l0.9 1.1c-1 0.9-2 1.5-3.8 1.5C118.6 192.1 117.3 190.3 117.3 187.3zM130.1 187.3v-18.6h-4v-1.4h4v-6.6h1.5v6.6h4.9v1.4h-4.9v18.6c0 2 0.8 3.5 2.6 3.5 1.2 0 2.2-0.6 2.9-1.3l0.9 1.1c-1 0.9-2 1.5-3.8 1.5C131.4 192.1 130.1 190.3 130.1 187.3zM141.1 199.6c0.5 0.2 1.5 0.4 2.1 0.4 1.6 0 2.7-0.7 3.8-3.3l2.2-5 -10.4-24.3h1.8l9.5 22.4 9.5-22.4h1.8l-12.8 29.9c-1.1 2.6-2.9 4.1-5.3 4.1 -0.9 0-1.8-0.2-2.4-0.4L141.1 199.6z"/><path d="M45.6 245.9v-33.4h11.6c6.2 0 9.8 4.3 9.8 9.5s-3.7 9.5-9.8 9.5h-10v14.5H45.6zM65.1 222c0-4.6-3.2-8-8.1-8h-9.9V230h9.9C62 230 65.1 226.6 65.1 222zM72.5 216.2c0-0.8 0.7-1.5 1.5-1.5 0.8 0 1.5 0.7 1.5 1.5s-0.6 1.5-1.5 1.5C73.2 217.6 72.5 217 72.5 216.2zM73.2 245.9v-24.2h1.5v24.2H73.2zM82 233.8c0-7 4.4-12.7 11.4-12.7 4 0 6.2 1.5 8.3 4.1l-1.1 0.9c-2-2.7-4.2-3.6-7.1-3.6 -6.2 0-9.9 5-9.9 11.3 0 6.3 3.6 11.4 9.9 11.4 2.8 0 5.1-1 7.1-3.7l1.1 1c-2.1 2.5-4.3 4-8.3 4C86.4 246.5 82 240.8 82 233.8zM108.3 241.7v-18.6h-4v-1.3h4v-6.6h1.5v6.6h4.9v1.3h-4.9v18.6c0 2 0.8 3.5 2.6 3.5 1.2 0 2.2-0.6 2.9-1.3l0.9 1.1c-1 0.9-2 1.5-3.8 1.5C109.6 246.5 108.3 244.7 108.3 241.7zM137.1 245.9v-3.7c-2 2.3-5.4 4.3-8.8 4.3 -4.8 0-7.6-2.1-7.6-7.8v-17h1.5v17c0 5 2.5 6.5 6.3 6.5 3.3 0 6.9-2 8.6-4.4v-19h1.5v24.2H137.1zM147.2 245.9v-24.2h1.5v4.4c2.2-2.9 4.8-4.9 8.3-4.9v1.8c-0.5 0-0.8 0-1.2 0 -2.6 0-6 2.5-7.1 4.8v18.1H147.2zM161.1 233.8c0-7 4.9-12.7 11.4-12.7 7.4 0 11.2 6 11.2 12.7v0.5h-20.9c0.1 5.9 4 10.9 10.2 10.9 3.4 0 6.2-1.2 8.4-3.7l0.9 1c-2.5 2.5-5.2 4-9.3 4C165.9 246.5 161.1 241.2 161.1 233.8zM172.4 222.5c-6.2 0-9.5 5.7-9.6 10.5H182C182 228.3 179 222.5 172.4 222.5zM188.8 242.7l1.2-1.1c1.5 2 4.1 3.6 7.7 3.6 4.5 0 7.2-2.4 7.2-5.6 0-7.4-15.5-3.5-15.5-12 0-3.5 3-6.4 8.2-6.4 4.1 0 6.8 1.7 8.3 3.7l-1.1 1c-1.4-2-4-3.3-7.2-3.3 -4.2 0-6.7 2.2-6.7 5 0 6.8 15.5 2.9 15.5 12 0 3.8-2.8 7-8.7 7C193.9 246.5 191.2 245.4 188.8 242.7z"/><line fill="none" stroke="#000000" stroke-miterlimit="10" x1="28.9" y1="22.8" x2="28.9" y2="133.8"/><line fill="none" stroke="#000000" stroke-miterlimit="10" x1="234.4" y1="261.3" x2="121.4" y2="261.3"/></svg>