<svg version="1.1" xmlns="http://www.w3.org/2000/svg" x="0" y="0" viewBox="0 0 258.8 280.6" enable-background="new 0 0 258.8 280.6" xml:space="preserve"><path d="M65.3 81.1L45.9 54.5v26.6h-4.1V47.7H46l19.2 26.1V47.7h4.2v33.4H65.3zM75.6 69c0-7 4.6-12.7 12-12.7s12 5.7 12 12.7 -4.6 12.7-12 12.7S75.6 76 75.6 69zM95.5 69c0-4.9-2.8-9.3-8-9.3s-8.1 4.4-8.1 9.3c0 5 2.9 9.4 8.1 9.4S95.5 73.9 95.5 69zM106.3 76V60.2h-4v-3.3h4v-6.6h3.8v6.6h4.9v3.3h-4.9v15c0 1.8 0.8 3.1 2.5 3.1 1 0 2.1-0.5 2.6-1l1.1 2.8c-1 0.9-2.3 1.6-4.5 1.6C108.1 81.7 106.3 79.6 106.3 76z"/><path d="M38.4 132.1l2.2-3.2c1.5 1.8 3.4 3.3 6.3 3.3 4.1 0 6.7-2.9 6.7-7V102h4.1v23.3c0 7.3-4.7 10.7-10.6 10.7C43.5 136 40.7 134.8 38.4 132.1zM81.6 135.4V132c-1.9 2.1-5 4-8.6 4 -5.1 0-7.7-2.5-7.7-7.7v-17.1h3.8v15.9c0 4.3 2.1 5.5 5.4 5.5 3 0 5.8-1.7 7.2-3.7v-17.8h3.8v24.2H81.6zM90.8 132.2l2-2.7c1.6 1.9 4.7 3.5 8 3.5 3.7 0 5.7-1.8 5.7-4.2 0-5.9-15-2.2-15-11.2 0-3.8 3.2-7 9-7 4.1 0 7 1.6 9 3.5l-1.8 2.6c-1.4-1.8-4.1-3-7.2-3 -3.3 0-5.4 1.6-5.4 3.8 0 5.3 15 1.8 15 11.2 0 4-3.2 7.3-9.5 7.3C96.6 136 93.2 134.8 90.8 132.2zM116.9 130.3v-15.8h-4v-3.3h4v-6.6h3.8v6.6h4.9v3.3h-4.9v15c0 1.8 0.8 3.1 2.5 3.1 1 0 2-0.5 2.5-1l1.1 2.8c-1 0.9-2.3 1.6-4.5 1.6C118.7 136 116.9 133.9 116.9 130.3z"/><path d="M41.7 190.4V157h13.4c6.7 0 10.5 4.6 10.5 10.1 0 5.4-3.8 10.1-10.5 10.1h-9.3v13.3H41.7zM61.3 167.1c0-3.8-2.7-6.4-6.7-6.4h-8.8v12.7h8.8C58.6 173.4 61.3 170.8 61.3 167.1zM70.9 190.4v-24.2h3.8v3.9c2-2.6 4.8-4.4 8.1-4.4v3.9c-0.5-0.1-0.9-0.2-1.5-0.2 -2.3 0-5.5 1.9-6.6 3.9v17.1H70.9zM86 178.3c0-7 5-12.7 11.9-12.7 7.3 0 11.6 5.7 11.6 13v1H90c0.3 4.5 3.5 8.4 8.7 8.4 2.8 0 5.6-1.1 7.5-3.1l1.8 2.5c-2.4 2.4-5.7 3.7-9.6 3.7C91.2 191 86 185.8 86 178.3zM97.9 168.7c-5.2 0-7.7 4.4-7.9 8.1h15.9C105.8 173.2 103.4 168.7 97.9 168.7zM116.3 185.3v-15.8h-4v-3.3h4v-6.6h3.8v6.6h4.9v3.3h-4.9v15c0 1.8 0.8 3.1 2.5 3.1 1 0 2-0.5 2.5-1l1.1 2.8c-1 0.9-2.3 1.5-4.5 1.5C118.1 191 116.3 188.9 116.3 185.3zM131 185.3v-15.8h-4v-3.3h4v-6.6h3.8v6.6h4.9v3.3h-4.9v15c0 1.8 0.8 3.1 2.5 3.1 1 0 2.1-0.5 2.6-1l1.1 2.8c-1 0.9-2.3 1.5-4.5 1.5C132.8 191 131 188.9 131 185.3zM144.2 196.4c0.6 0.2 1.5 0.4 2.1 0.4 1.6 0 2.8-0.5 3.6-2.5l1.6-3.7 -10.1-24.4h4l8.1 19.8 8-19.8h4.1l-12.1 29.1c-1.5 3.5-3.9 4.9-7.1 4.9 -0.8 0-2-0.2-2.8-0.4L144.2 196.4z"/><path d="M41.7 244.8v-33.4h13.4c6.7 0 10.5 4.6 10.5 10s-3.8 10.1-10.5 10.1h-9.3v13.3H41.7zM61.3 221.5c0-3.8-2.7-6.3-6.7-6.3h-8.8v12.7h8.8C58.6 227.8 61.3 225.2 61.3 221.5zM70.3 214.7c0-1.4 1.2-2.6 2.5-2.6 1.4 0 2.6 1.2 2.6 2.6 0 1.4-1.2 2.5-2.6 2.5C71.4 217.2 70.3 216.1 70.3 214.7zM70.9 244.8v-24.2h3.8v24.2H70.9zM80.8 232.7c0-7.2 4.8-12.7 12.1-12.7 4.4 0 7 1.8 8.9 4.2l-2.5 2.3c-1.6-2.2-3.7-3.2-6.2-3.2 -5.2 0-8.4 4-8.4 9.3s3.2 9.4 8.4 9.4c2.5 0 4.5-1 6.2-3.2l2.5 2.3c-1.9 2.4-4.5 4.2-8.9 4.2C85.6 245.4 80.8 239.9 80.8 232.7zM107.7 239.7v-15.8h-4v-3.3h4V214h3.8v6.6h4.9v3.3h-4.9v15c0 1.8 0.8 3.1 2.5 3.1 1 0 2-0.5 2.5-1l1.1 2.8c-1 0.9-2.3 1.5-4.5 1.5C109.5 245.4 107.7 243.3 107.7 239.7zM137.9 244.8v-3.4c-1.8 2.1-5 4-8.6 4 -5 0-7.7-2.5-7.7-7.7v-17.1h3.8v15.9c0 4.3 2.2 5.5 5.4 5.5 3 0 5.8-1.7 7.2-3.7v-17.8h3.8v24.2H137.9zM149.2 244.8v-24.2h3.8v3.9c2-2.6 4.8-4.4 8.1-4.4v3.9c-0.5-0.1-0.9-0.2-1.5-0.2 -2.3 0-5.5 1.9-6.6 3.9v17.1H149.2zM164.3 232.7c0-7 5-12.7 11.9-12.7 7.3 0 11.6 5.7 11.6 13v1h-19.6c0.3 4.5 3.5 8.4 8.7 8.4 2.8 0 5.6-1.1 7.5-3.1l1.8 2.5c-2.4 2.4-5.7 3.7-9.6 3.7C169.4 245.4 164.3 240.2 164.3 232.7zM176.1 223.1c-5.2 0-7.7 4.4-7.9 8.1h15.9C184 227.6 181.6 223.1 176.1 223.1zM191.7 241.6l2-2.7c1.6 1.9 4.7 3.5 8 3.5 3.7 0 5.7-1.8 5.7-4.2 0-5.9-15-2.2-15-11.2 0-3.8 3.2-7 9-7 4.1 0 7 1.6 9 3.5l-1.8 2.6c-1.4-1.8-4.1-3-7.2-3 -3.3 0-5.4 1.7-5.4 3.8 0 5.3 15 1.8 15 11.2 0 4-3.2 7.3-9.5 7.3C197.5 245.4 194.2 244.2 191.7 241.6z"/><line fill="none" stroke="#000000" stroke-miterlimit="10" x1="26.7" y1="16.7" x2="26.7" y2="127.7"/><line fill="none" stroke="#000000" stroke-miterlimit="10" x1="238.2" y1="259.2" x2="125.2" y2="259.2"/></svg>